# xmcd CD database file
#
# Track frame offsets:
#	150
#	27528
#	43355
#	63951
#	86143
#	100734
#	117427
#	136908
#	153430
#	164157
#
# Disc length: 2902 seconds
#
# Revision: 0
# Processed by: cddbd v1.4PL0 Copyright (c) Steve Scherf et al.
# Submitted via: CDex 1.51
#
DISCID=8d0b540a
DTITLE=Couvez, Rémy - Wheeling Dance
DYEAR=2001
DGENRE=New Age
TTITLE0=Wheeling Dance
TTITLE1=Au Rythme Des Etoiles
TTITLE2=De Tout Mon Coeur
TTITLE3=Kaleidoscope
TTITLE4=Aqua Marina
TTITLE5=Une Autre Lumiere
TTITLE6=Fugue En Solitaire
TTITLE7=Le Chant Des Trolles
TTITLE8=Cassiopee
TTITLE9=Arabesque
EXTD=YEAR: 2001
EXTT0=
EXTT1=
EXTT2=
EXTT3=
EXTT4=
EXTT5=
EXTT6=
EXTT7=
EXTT8=
EXTT9=
PLAYORDER=
